:SAMPLES-PER-SECOND 30
:FULLY-SPECIFIED
:DEGREES
100
root  -9.64994 40.3259 -0.568794 158.548 -83.5136 -144.306
RightUpLeg  -17.8821 2.1894 1.23613
RightLeg  0.659461 -23.123 1.45025
RightFoot  3.87997 -0.305782 2.43158
RightToes  -3.13006e-008 1.75238e-005 3.56266e-009
Spine  22.1258 1.56294 7.02387
Spine1  5.42431 3.4898 -4.68751
HEad  -22.5444 -3.90963 -0.112483
LeftShoulder1  3.24875 -7.51464 -23.2351
LeftArm  -21.138 -40.2827 -67.3791
LeftForeArm  37.2856 -61.9214 -17.6148
LeftHand  -1.56986 -3.3059 21.0216
RightShoulder  4.15167 10.0219 24.5691
RightArm  -8.10071 41.5532 53.643
RightForeArm  31.8168 53.3673 12.5141
RightHand  -5.49934 12.241 -35.3923
LeftUpLeg  -26.2407 6.15745 8.60452
LeftLeg  4.91668 9.40843 -1.59021
LeftFoot  9.02973 0.37133 -2.3736
LeftToes  4.78512e-008 1.47396e-008 1.32451e-009
101
root  -9.6207 40.3292 -0.564007 157.701 -83.5811 -143.545
RightUpLeg  -17.8117 2.24266 1.27009
RightLeg  0.624044 -23.2568 1.41688
RightFoot  3.95587 -0.30555 2.39911
RightToes  -3.13006e-008 1.75238e-005 3.56266e-009
Spine  22.4588 1.54919 6.865
Spine1  5.26114 3.40812 -4.44628
HEad  -22.5781 -3.67049 0.0820615
LeftShoulder1  3.22903 -7.47622 -23.1542
LeftArm  -21.5367 -40.1483 -67.4834
LeftForeArm  37.7037 -62.1854 -17.7953
LeftHand  -1.5566 -3.35473 20.7384
RightShoulder  4.18464 10.0461 24.7673
RightArm  -10.6696 41.6837 53.8038
RightForeArm  32.0214 52.8566 12.2377
RightHand  -5.60895 12.5888 -35.3998
LeftUpLeg  -26.1571 6.16886 8.64978
LeftLeg  4.79791 9.299 -1.67907
LeftFoot  9.11141 0.389975 -2.47038
LeftToes  4.78512e-008 1.47396e-008 1.32451e-009
102
root  -9.60598 40.3268 -0.552577 157.32 -83.5654 -143.069
RightUpLeg  -17.8801 2.40593 1.31684
RightLeg  0.492904 -23.432 1.35177
RightFoot  4.07123 -0.311685 2.46736
RightToes  -3.13006e-008 1.75238e-005 3.56266e-009
Spine  22.4163 1.46023 6.78059
Spine1  5.33705 3.27586 -4.35145
HEad  -22.475 -3.3433 0.381014
LeftShoulder1  3.20507 -7.41011 -23.1107
LeftArm  -21.7847 -40.3737 -66.4542
LeftForeArm  36.974 -61.9461 -17.6711
LeftHand  -1.57059 -3.21712 21.2392
RightShoulder  4.17649 10.0466 24.7021
RightArm  -9.68478 41.9793 53.7969
RightForeArm  32.1258 53.0175 12.3117
RightHand  -5.56946 12.5092 -35.3144
LeftUpLeg  -26.2643 6.148 8.6831
LeftLeg  4.75557 9.32027 -1.67993
LeftFoot  9.16946 0.368991 -2.35029
LeftToes  4.78512e-008 1.47396e-008 1.32451e-009
103
root  -9.60306 40.3351 -0.538821 159.501 -83.249 -145.312
RightUpLeg  -17.8031 2.42609 1.28946
RightLeg  0.372793 -23.0697 1.38865
RightFoot  4.17929 -0.315241 2.49758
RightToes  -3.13006e-008 1.75238e-005 3.56266e-009
Spine  22.6046 1.51185 6.5802
Spine1  5.28511 3.33564 -4.41479
HEad  -22.2459 -3.34433 0.497271
LeftShoulder1  3.21275 -7.38244 -23.2637
LeftArm  -22.0157 -40.4975 -65.8157
LeftForeArm  36.4208 -61.6731 -17.4995
LeftHand  -1.58364 -3.11692 21.6525
RightShoulder  4.05607 9.93056 24.0398
RightArm  -5.84242 42.0232 54.0878
RightForeArm  33.0987 54.0437 12.7564
RightHand  -5.51555 12.2892 -35.4008
LeftUpLeg  -26.0749 6.1677 8.73256
LeftLeg  4.68374 9.71219 -1.71264
LeftFoot  9.12743 0.375237 -2.37435
LeftToes  4.78512e-008 1.47396e-008 1.32451e-009
104
root  -9.61182 40.3376 -0.519397 161.079 -83.1041 -146.824
RightUpLeg  -17.8477 2.33738 1.19247
RightLeg  0.273598 -22.7874 1.46716
RightFoot  4.25099 -0.314596 2.46462
RightToes  -3.13006e-008 1.75238e-005 3.56266e-009
Spine  22.3122 1.4562 6.56886
Spine1  5.65708 3.32983 -4.65881
HEad  -21.9149 -3.46158 0.453651
LeftShoulder1  3.17695 -7.36304 -22.9715
LeftArm  -22.2591 -40.5978 -66.0069
LeftForeArm  36.2354 -61.585 -17.4462
LeftHand  -1.54659 -3.01415 21.4095
RightShoulder  3.93119 9.8652 23.2102
RightArm  -0.807299 42.5602 54.0955
RightForeArm  34.0553 54.9611 13.1653
RightHand  -5.48877 12.542 -34.7784
LeftUpLeg  -26.0949 6.05787 8.664
LeftLeg  4.69601 10.036 -1.63473
LeftFoot  9.15465 0.364333 -2.27598
LeftToes  4.78512e-008 1.47396e-008 1.32451e-009
105
root  -9.60706 40.3374 -0.501544 162.095 -82.8522 -147.694
RightUpLeg  -17.9879 2.41112 1.20643
RightLeg  0.147604 -22.5809 1.51389
RightFoot  4.36073 -0.310525 2.38051
RightToes  -3.13006e-008 1.75238e-005 3.56266e-009
Spine  22.16 1.53486 6.59575
Spine1  5.66851 3.42819 -4.72492
HEad  -21.4477 -3.92076 0.445875
LeftShoulder1  3.19064 -7.36465 -23.0998
LeftArm  -22.1096 -40.5556 -66.1759
LeftForeArm  36.1296 -61.4468 -17.3422
LeftHand  -1.51749 -3.00638 21.0389
RightShoulder  3.86666 9.85478 22.7216
RightArm  3.48811 43.136 53.7145
RightForeArm  34.65 55.5218 13.429
RightHand  -5.4913 12.799 -34.3338
LeftUpLeg  -26.2486 6.1505 8.69485
LeftLeg  4.80077 10.2332 -1.59435
LeftFoot  9.09218 0.3605 -2.32897
LeftToes  4.78512e-008 1.47396e-008 1.32451e-009
